<svg xmlns="http://www.w3.org/2000/svg" viewBox="0 0 43.677001 48.963001">
    <style>
        circle, path {
            /*fill: #474A56;*/

            fill: #fff;
        }
    </style>

    <g transform="translate(-6.5410001,-4.697)">
        <g class="foreground">
            <path d="m 48.662,9.463 c 0,-2.629 -2.138,-4.766 -4.767,-4.766 -2.625,0 -4.765,2.137 -4.765,4.766 0,0.838 0.22,1.624 0.601,2.31 L 28.862,23.179 c -0.986,-0.598 -2.14,-0.946 -3.373,-0.946 -3.611,0 -6.548,2.937 -6.548,6.546 0,3.608 2.937,6.546 6.548,6.546 0.067,0 0.128,-0.008 0.197,-0.01 l 2.428,9.529 c -1.356,0.841 -2.268,2.34 -2.268,4.051 0,2.628 2.14,4.765 4.767,4.765 2.626,0 4.764,-2.137 4.764,-4.765 0,-2.541 -2,-4.617 -4.507,-4.752 l -2.429,-9.53 c 2.129,-1.08 3.593,-3.287 3.593,-5.834 0,-1.347 -0.408,-2.601 -1.109,-3.642 l 10.87,-11.405 c 0.634,0.316 1.347,0.496 2.102,0.496 2.627,0 4.765,-2.137 4.765,-4.765 z M 28.691,47.109 c 0.481,-0.517 1.16,-0.847 1.921,-0.847 0.293,0 0.571,0.06 0.835,0.149 1.041,0.351 1.798,1.325 1.798,2.483 0,1.452 -1.183,2.633 -2.633,2.633 -1.45,0 -2.633,-1.181 -2.633,-2.633 0,-0.69 0.273,-1.314 0.712,-1.785 z m 0.397,-17.501 c -0.166,0.72 -0.54,1.358 -1.059,1.851 -0.101,0.096 -0.211,0.182 -0.323,0.268 -0.621,0.468 -1.384,0.755 -2.217,0.755 -0.185,0 -0.362,-0.028 -0.538,-0.054 -0.788,-0.116 -1.498,-0.47 -2.044,-1.001 -0.51,-0.499 -0.878,-1.142 -1.035,-1.866 -0.055,-0.252 -0.088,-0.512 -0.088,-0.781 0,-1.031 0.43,-1.966 1.112,-2.638 0.496,-0.487 1.126,-0.837 1.832,-0.985 0.245,-0.051 0.5,-0.078 0.761,-0.078 0.466,0 0.909,0.096 1.32,0.254 0.921,0.354 1.665,1.059 2.064,1.958 0.202,0.456 0.317,0.959 0.317,1.489 10e-4,0.285 -0.039,0.56 -0.102,0.828 z M 43.895,12.095 c -0.168,0 -0.334,-0.019 -0.495,-0.051 -1.013,-0.193 -1.814,-0.97 -2.055,-1.965 -0.051,-0.199 -0.081,-0.404 -0.081,-0.616 0,-1.452 1.181,-2.634 2.631,-2.634 1.452,0 2.633,1.182 2.633,2.634 0,1.452 -1.181,2.632 -2.633,2.632 z" />
        </g>

         <g class="background">
            <circle cx="47.089001" cy="40.805" r="3.1289999" />
            <circle cx="9.6700001" cy="37.212002" r="3.1289999" />
            <circle cx="14.467" cy="8.2410002" r="3.1300001" />

            <path d="M 19.114,14.647 17.9,12.384 c -0.278,-0.519 -0.922,-0.715 -1.444,-0.436 -0.517,0.277 -0.714,0.924 -0.436,1.444 l 1.217,2.263 c 0.19,0.357 0.558,0.564 0.938,0.564 0.171,0 0.344,-0.042 0.505,-0.128 0.518,-0.278 0.713,-0.926 0.434,-1.444 z" />

            <path d="m 20.27,21.313 c 0.193,0.36 0.562,0.564 0.942,0.564 0.172,0 0.342,-0.041 0.502,-0.127 0.52,-0.279 0.713,-0.926 0.436,-1.445 l -1.215,-2.263 c -0.278,-0.518 -0.924,-0.714 -1.444,-0.435 -0.52,0.279 -0.712,0.925 -0.435,1.443 l 1.214,2.263 z" />

            <path d="m 35.98,33.542 -2.469,-1.411 c -0.513,-0.292 -1.164,-0.113 -1.457,0.397 -0.289,0.512 -0.113,1.163 0.399,1.455 l 2.469,1.41 c 0.167,0.096 0.349,0.141 0.528,0.141 0.373,0 0.73,-0.193 0.928,-0.539 0.293,-0.511 0.114,-1.163 -0.398,-1.453 z" />

            <path d="m 42.157,37.066 -2.472,-1.41 c -0.512,-0.291 -1.162,-0.113 -1.455,0.397 -0.29,0.513 -0.113,1.163 0.397,1.456 l 2.47,1.409 c 0.17,0.096 0.349,0.141 0.53,0.141 0.368,0 0.728,-0.194 0.925,-0.539 0.291,-0.511 0.113,-1.162 -0.395,-1.454 z" />

            <path d="m 17.152,32.173 -2.487,1.375 c -0.517,0.286 -0.705,0.935 -0.418,1.449 0.194,0.351 0.559,0.551 0.934,0.551 0.174,0 0.352,-0.043 0.515,-0.133 l 2.487,-1.377 c 0.517,-0.285 0.704,-0.934 0.419,-1.45 -0.286,-0.514 -0.936,-0.702 -1.45,-0.415 z" />
        </g>
    </g>

</svg>
