<svg
   xmlns="http://www.w3.org/2000/svg"
   width="100.00087"
   height="69.312836">

    <style>
        path {
            fill: #fff;
        }
    </style>

    <g transform="translate(8.6599828e-4,-15.344)">
        <path d="m 56.452,54.774 6.297,-1.147 c 0.017,-1.813 -0.124,-3.616 -0.415,-5.388 l -6.397,-0.192 c -0.444,-2.078 -1.15,-4.098 -2.102,-6.003 l 4.879,-4.143 c -0.879,-1.571 -1.896,-3.064 -3.042,-4.47 l -5.637,3.035 c -1.401,-1.559 -3.016,-2.957 -4.829,-4.149 l 2.15,-6.025 C 46.587,25.835 45.794,25.403 44.97,25.008 44.15,24.613 43.324,24.267 42.491,23.949 l -3.365,5.447 c -2.062,-0.673 -4.163,-1.065 -6.258,-1.189 l -1.149,-6.296 c -1.813,-0.02 -3.614,0.12 -5.385,0.411 l -0.193,6.397 c -2.081,0.444 -4.101,1.15 -6.008,2.104 l -4.146,-4.878 c -1.565,0.882 -3.059,1.898 -4.46,3.042 l 3.032,5.633 C 13,36.021 11.598,37.642 10.406,39.456 8.22,38.676 6.158,37.94 4.38,37.304 3.926,38.078 3.495,38.866 3.1,39.686 c -0.395,0.82 -0.742,1.649 -1.062,2.486 1.607,0.993 3.466,2.144 5.443,3.365 -0.67,2.062 -1.062,4.166 -1.187,6.261 l -6.293,1.149 c -0.02,1.811 0.121,3.61 0.412,5.385 l 6.397,0.189 c 0.447,2.085 1.156,4.107 2.107,6.009 L 4.04,68.674 c 0.883,1.568 1.896,3.062 3.046,4.466 l 5.63,-3.035 c 1.408,1.559 3.025,2.957 4.835,4.149 l -2.146,6.025 c 0.765,0.451 1.556,0.882 2.376,1.274 0.823,0.398 1.653,0.748 2.492,1.062 l 3.366,-5.44 c 2.058,0.67 4.159,1.062 6.25,1.184 l 1.15,6.296 c 1.813,0.02 3.613,-0.124 5.388,-0.412 l 0.196,-6.4 c 2.078,-0.444 4.094,-1.15 5.999,-2.104 l 4.143,4.875 c 1.568,-0.875 3.062,-1.892 4.467,-3.035 L 48.2,71.939 c 1.556,-1.401 2.95,-3.016 4.143,-4.829 l 6.025,2.153 c 0.454,-0.771 0.889,-1.565 1.284,-2.385 0.392,-0.817 0.738,-1.65 1.059,-2.487 l -5.443,-3.365 c 0.669,-2.06 1.06,-4.158 1.184,-6.252 z m -13.638,4.009 c -3.039,6.319 -10.622,8.979 -16.941,5.937 -6.319,-3.035 -8.979,-10.619 -5.937,-16.938 3.038,-6.319 10.622,-8.979 16.938,-5.94 6.319,3.039 8.98,10.622 5.94,16.941 z" />
       <path d="M 93.942,35.007 100,32 c -0.379,-1.686 -0.954,-3.326 -1.715,-4.878 l -6.61,1.435 C 90.754,27.09 89.58,25.763 88.182,24.656 l 2.16,-6.407 C 89.62,17.792 88.868,17.363 88.081,16.984 87.29,16.605 86.489,16.285 85.68,16.007 l -3.66,5.685 c -1.738,-0.398 -3.506,-0.489 -5.228,-0.29 l -3.006,-6.058 c -1.687,0.375 -3.326,0.95 -4.878,1.708 l 1.434,6.607 c -1.47,0.918 -2.803,2.091 -3.917,3.492 -2.255,-0.761 -4.474,-1.506 -6.407,-2.159 -0.461,0.725 -0.893,1.479 -1.271,2.277 -0.379,0.78 -0.695,1.574 -0.974,2.378 1.716,1.102 3.689,2.373 5.688,3.656 -0.408,1.748 -0.496,3.522 -0.297,5.254 -2.131,1.056 -4.231,2.098 -6.062,3.007 0.376,1.683 0.948,3.319 1.706,4.871 C 60.804,46 63.091,45.504 65.414,45 c 0.925,1.48 2.104,2.816 3.516,3.935 l -2.163,6.403 c 0.723,0.458 1.471,0.883 2.265,1.262 0.784,0.379 1.584,0.699 2.389,0.98 1.104,-1.716 2.368,-3.689 3.659,-5.692 1.751,0.409 3.532,0.494 5.267,0.294 l 3,6.055 c 1.686,-0.379 3.322,-0.95 4.875,-1.712 -0.435,-1.993 -0.932,-4.283 -1.435,-6.61 1.47,-0.921 2.803,-2.101 3.917,-3.509 l 6.408,2.156 c 0.454,-0.715 0.875,-1.46 1.251,-2.244 0.379,-0.794 0.706,-1.602 0.983,-2.411 l -5.688,-3.663 c 0.399,-1.741 0.488,-3.515 0.284,-5.237 z m -8.89,4.91 c -1.729,3.588 -6.034,5.098 -9.619,3.372 -3.588,-1.725 -5.097,-6.031 -3.372,-9.619 1.723,-3.588 6.032,-5.097 9.619,-3.372 3.585,1.723 5.093,6.032 3.372,9.619 z" />
   </g>
</svg>
