<?xml version="1.0" encoding="UTF-8" standalone="no"?>
<svg
    xmlns="http://www.w3.org/2000/svg"
    version="1.1"
    viewBox="0 0 113.87852 134.50987">

    <style>
        path {
            fill: #fff;
        }
    </style>

    <g transform="translate(8.3967755e-7,-1.2326652e-4)">
        <path d="m 83.959,99.534 c 3.009,3.011 3.013,7.895 0,10.903 -1.501,1.509 -3.476,2.263 -5.447,2.263 -1.976,0 -3.952,-0.754 -5.46,-2.259 L 38.558,75.952 C 28.254,65.644 28.254,48.868 38.558,38.559 43.552,33.57 50.19,30.82 57.25,30.82 h 0.008 c 7.059,0 13.698,2.754 18.688,7.75 6.875,6.875 9.421,16.94 6.635,26.272 -1.226,4.081 -5.514,6.404 -9.596,5.183 -4.081,-1.217 -6.404,-5.514 -5.188,-9.597 1.165,-3.889 0.109,-8.09 -2.758,-10.955 -2.081,-2.083 -4.842,-3.23 -7.785,-3.231 H 57.25 c -2.943,0 -5.705,1.145 -7.787,3.224 -4.294,4.294 -4.294,11.284 0,15.58 L 83.959,99.534 z M 97.764,16.751 C 75.516,-5.496 39.365,-5.585 17.002,16.495 l -0.261,0.261 c -22.327,22.339 -22.32,58.679 0.013,81.009 l 34.495,34.489 c 1.506,1.506 3.479,2.256 5.451,2.256 1.972,0 3.95,-0.75 5.455,-2.256 3.008,-3.011 3.008,-7.895 0,-10.905 L 27.654,86.857 C 11.384,70.589 11.332,44.14 27.502,27.804 L 27.66,27.65 c 16.325,-16.315 42.882,-16.31 59.197,0.005 13.397,13.398 15.32,36.325 4.463,53.338 -2.289,3.587 -1.235,8.355 2.352,10.645 3.596,2.297 8.357,1.237 10.645,-2.349 14.898,-23.342 12.14,-53.846 -6.553,-72.538" />
   </g>

</svg>
